# xmcd
#
# Track frame offsets:
#	150
#	12696
#	34033
#	45804
#	55646
#	72986
#	85604
#	95849
#	109092
#	145124
#	163399
#	175721
#	190209
#	208194
#	232096
#	240258
#	260872
#	279463
#	292836
#	330174
#
# Disc length: 4716 seconds
#
# Revision: 0
# Processed by: cddbd v1.5.2PL0 Copyright (c) Steve Scherf et al.
# Submitted via: EZCDAudioConverter 2.1.7.1
#
DISCID=18126a14
DTITLE=V/A - Dust On The Nettles 1/3
DYEAR=1900
DGENRE=
TTITLE0=The Pentangle - Let No Man Steal Your Thyme
TTITLE1=Magnet - Willow's Song (From The Wicker Man)
TTITLE2=Wight - Come All You Travellers
TTITLE3=Spirogyra - Love Is A Funny Thing
TTITLE4=Gary Farr - Images Of Passing Clouds
TTITLE5=Synanthesia - Peek Strangely And Worried Evening
TTITLE6=Bob and Carole Pegg - Glass Of Water
TTITLE7=Vashti Bunyan - Winter Is Blue
TTITLE8=Comus - Winter Is A Coloured Bird
TTITLE9=Chrissie Quayle - The Seagulls Scream
TTITLE10=Clive Palmer - Stories Of Jesus
TTITLE11=Steve Peregrin Took's Shagrat - Amanda
TTITLE12=Bridget St. John - Curious Crystals Of Unusual Purity
TTITLE13=Mark Fry - Roses For Columbus
TTITLE14=Dando Shaft - Till The Morning Comes
TTITLE15=Mary-Anne - Black Girl
TTITLE16=Trees - The Garden Of Jane Delawney
TTITLE17=Principal Edwards Magic Theatre - Weirdsong Of Breaking Through At La
TTITLE17=st
TTITLE18=Oberon - Minas Tirith
TTITLE19=Paper Bubble - Prisoners, Victims, Strangers, Friends
EXTD=
EXTT0=
EXTT1=
EXTT2=
EXTT3=
EXTT4=
EXTT5=
EXTT6=
EXTT7=
EXTT8=
EXTT9=
EXTT10=
EXTT11=
EXTT12=
EXTT13=
EXTT14=
EXTT15=
EXTT16=
EXTT17=
EXTT18=
EXTT19=
PLAYORDER=
